<?xml version="1.0" encoding="utf-8"?>
<!-- Generator: Adobe Illustrator 25.4.1, SVG Export Plug-In . SVG Version: 6.00 Build 0)  -->
<svg version="1.1" id="Layer_1" xmlns="http://www.w3.org/2000/svg" xmlns:xlink="http://www.w3.org/1999/xlink" x="0px" y="0px"
	 viewBox="0 0 612 792" style="enable-background:new 0 0 612 792;" xml:space="preserve">
<style type="text/css">
	.st0{stroke:#00AEEF;stroke-miterlimit:10;}
	.st1{fill:none;stroke:#00AEEF;stroke-width:5;stroke-miterlimit:10;}
	.st2{fill:#00AEEF;stroke:#00AEEF;stroke-width:5;stroke-miterlimit:10;}
	.st3{stroke:#00AEEF;stroke-width:5;stroke-miterlimit:10;}
	.st4{fill:none;stroke:#000000;stroke-width:10;stroke-miterlimit:10;}
	.st5{stroke:#000000;stroke-width:5;stroke-miterlimit:10;}
</style>
<path class="st0" d="M0,0h612v792c-160.08,0-320.16,0-480.24,0c-43.92,0-87.84,0-131.76,0C0,528,0,264,0,0z"/>
<path class="st1" d="M78.32,801.03V545.76c-14.34-18.89-28.69-37.77-43.03-56.66c0,53.51,0,107.02,0,160.53
	c-17.56,0-35.12,0-52.69,0"/>
<polyline class="st1" points="103.32,801.03 103.32,252.34 141.47,172.08 141.47,-6.87 "/>
<path class="st1" d="M113.47-6.87v178.95l-38.16,80.26v207.89v39.47l-40.42-57.89c-0.19-103.86-0.39-207.72-0.58-311.57
	c0.19,47.62,0.39,95.24,0.58,142.86c14.98-33.57,29.95-67.15,44.93-100.72"/>
<circle class="st2" cx="79.49" cy="174.13" r="5.31"/>
<rect x="170.68" y="71.49" class="st1" width="57.28" height="100.09"/>
<path class="st1" d="M188.38,151.86c0-20,0-39.99,0-59.99c7.76,0,15.51,0,23.27,0c0,19.7,0,39.39,0,59.09"/>
<path class="st1" d="M569.94,835.61c0-62,0-123.99,0-185.99c29.05,0,58.11,0,87.16,0"/>
<path class="st2" d="M35,771.37c0-30.48,0-60.96,0-91.45"/>
<circle class="st2" cx="35" cy="771.37" r="5.04"/>
<path class="st1" d="M137.97,823.1c0-156.79,0-313.59,0-470.38c9.49,9.49,18.98,18.98,28.47,28.47c0,149.57,0,299.14,0,448.71"/>
<path class="st1" d="M137.44,242.88c0,22.53,0,45.06,0,67.59c10.04,10.04,20.09,20.09,30.13,30.13c0-46.44,0-92.88,0-139.31
	c11,0,22,0,33,0c0-9.9,0-19.81,0-29.71"/>
<path class="st2" d="M142.52,239.26c0,2.79-2.26,5.04-5.04,5.04c-2.79,0-5.04-2.26-5.04-5.04c0-2.7,2.27-4.59,4.18-4.97
	c0.41-0.08,0.72-0.08,0.87-0.07C139.52,234.29,142.52,236.09,142.52,239.26z"/>
<path class="st1" d="M240.94,455.69c0,85.22,0,170.44,0,255.66c1.25,13.57-8.08,24.64-18.07,25.77
	c-11.29,1.27-24.28-10.06-23.31-25.77c0-85.34,0-170.67,0-256.01"/>
<circle class="st2" cx="241.06" cy="455.34" r="5.04"/>
<circle class="st2" cx="199.5" cy="455.34" r="5.04"/>
<path class="st3" d="M240,420.37c0-11.32,0-22.64,0-33.96c-13.04,0-26.08,0-39.13,0c0,11.32,0,22.64,0,33.96"/>
<circle class="st2" cx="240" cy="420.37" r="5.04"/>
<circle class="st2" cx="200.87" cy="420.37" r="5.04"/>
<circle class="st3" cx="469.16" cy="129.19" r="32.16"/>
<rect x="402.79" y="489.11" class="st1" width="47.39" height="155.96"/>
<rect x="510.6" y="340.6" class="st3" width="71.54" height="71.54"/>
<rect x="280.61" y="33.44" class="st3" width="64.04" height="95.75"/>
<circle class="st3" cx="34.31" cy="76.19" r="27.43"/>
<path class="st1" d="M451.27,612.33c11.86,0,23.71,0,35.57,0c0-33.14,0-66.28,0-99.42c-11.87,0-23.75,0-35.62,0"/>
<circle class="st2" cx="34.31" cy="76.19" r="5.04"/>
<path class="st2" d="M34.54,47.37c0-18.13,0-36.26,0-54.39"/>
<path class="st4" d="M451.25,609.82c-0.03-31.46-0.05-62.93-0.08-94.39"/>
<path class="st1" d="M402.79,552.21"/>
<circle class="st5" cx="240" cy="420.37" r="3.51"/>
<circle class="st5" cx="200.69" cy="420.37" r="3.51"/>
<path class="st1" d="M197.07,826.16c0-24.24,0-48.47,0-72.71c4.33,2.22,21.41,10.34,41.58,4.51c19.93-5.76,35.21-22.92,40.03-44.48
	c-0.8-40.09-1.27-80.61-1.39-121.55c-0.04-13.29-0.04-26.53,0-39.72"/>
<circle class="st2" cx="277.68" cy="552.21" r="5.04"/>
<path class="st1" d="M445.18,532.76c0,11.55,0,23.11,0,34.66c0,8.35,0,16.71,0,25.06"/>
<path class="st1" d="M414.17,496.22c0,27.36,0,54.72,0,82.08c0,19.78,0,39.57,0,59.35"/>
<path class="st1" d="M424.45,496.37c0,27.36,0,54.72,0,82.08c0,19.78,0,39.57,0,59.35"/>
<path class="st1" d="M435.37,496.22c0,27.36,0,54.72,0,82.08c0,19.78,0,39.57,0,59.35"/>
<path class="st1" d="M455.32,532.76c0,11.55,0,23.11,0,34.66c0,8.35,0,16.71,0,25.06"/>
<path class="st1" d="M465.49,532.77c0,11.55,0,23.11,0,34.66c0,8.35,0,16.71,0,25.06"/>
<path class="st1" d="M475.48,532.76c0,11.55,0,23.11,0,34.66c0,8.35,0,16.71,0,25.06"/>
<path class="st1" d="M332.98,803.9c0-97.11,0-194.22,0-291.33c0-63.15,0-126.3,0-189.44c43.95,0,87.89,0,131.84,0
	c0,18.22,0,36.45,0,54.67c15.26-0.09,30.53-0.17,45.79-0.26"/>
<path class="st1" d="M486.83,560.95c14.35,0,28.71,0,43.06,0c0-36.95,0-73.91,0-110.86c-47.18,0-94.36,0-141.54,0
	c0,118.17,0,236.33,0,354.5"/>
<path class="st1" d="M359.99,650.4c0.11-73.87,0.22-147.74,0.34-221.61c19.14,0,38.27,0,57.41,0c0-12.91,0-25.81,0-38.72
	c-19,0-38,0-57,0c0,6.69,0,13.38,0,20.07"/>
<circle class="st2" cx="360.68" cy="409.63" r="5.04"/>
<path class="st3" d="M349.54,695.71c7.98-7.98,15.96-15.96,23.93-23.93"/>
<path class="st3" d="M349.54,713.12c7.98-7.98,15.96-15.96,23.93-23.93"/>
<path class="st3" d="M349.54,730.07c7.98-7.98,15.96-15.96,23.93-23.93"/>
<path class="st3" d="M349.47,746.57c7.98-7.98,15.96-15.96,23.93-23.93"/>
<path class="st3" d="M349.47,763.98c7.98-7.98,15.96-15.96,23.93-23.93"/>
<path class="st3" d="M349.47,780.93c7.98-7.98,15.96-15.96,23.93-23.93"/>
<path class="st3" d="M365.31,782.13c2.72-2.72,5.45-5.45,8.17-8.17"/>
<path class="st3" d="M350.55,677.86c2.72-2.72,5.45-5.45,8.17-8.17"/>
<path class="st1" d="M219.45,386.41c0-45.18,0-90.35,0-135.53c9.07,0,18.14,0,27.21,0"/>
<circle class="st2" cx="246.66" cy="250.88" r="5.04"/>
<circle class="st5" cx="246.66" cy="250.88" r="3.51"/>
<path class="st1" d="M276.52,507.6c0-113.23,0-226.47,0-339.7c11.39,0,22.77,0,34.16,0c-0.02-12.9-0.04-25.81-0.06-38.71"/>
<circle class="st2" cx="276.52" cy="512.91" r="5.04"/>
<circle class="st5" cx="276.52" cy="512.91" r="3.51"/>
<circle class="st2" cx="306.73" cy="250.88" r="5.04"/>
<circle class="st5" cx="306.73" cy="250.88" r="3.51"/>
<line class="st3" x1="0" y1="0" x2="0" y2="0"/>
<path class="st3" d="M313.51,250.66c44.15,0,88.29,0,132.44,0c0,10.36,0,20.71,0,31.07c33.18,0,66.36,0,99.54,0
	c0,19.62,0,39.25-0.01,58.87"/>
<path class="st3" d="M485.37,345.17c0-12.62,0-25.23,0-37.85c12.25,0,24.5,0,36.75,0"/>
<circle class="st2" cx="485.37" cy="345.17" r="5.04"/>
<circle class="st2" cx="522.12" cy="307.32" r="5.04"/>
<circle class="st5" cx="522.12" cy="307.32" r="3.51"/>
<path class="st1" d="M402.08,288.66c-31.57,0-63.14,0-94.71,0c0,147.92,0,295.84,0,443.76c-17.25,17.25-34.5,34.5-51.75,51.75
	c-10.64,0-21.29,0-31.93,0c0,12.14,0,24.27,0,36.41"/>
<path class="st1" d="M278.75,818.31"/>
<path class="st1" d="M272.14,808.4c11.93-11.93,23.86-23.86,35.79-35.79c0,16.34,0,32.67,0,49.01"/>
<path class="st1" d="M458.87,645.26c8.07-8.07,16.15-16.15,24.22-24.22c-8.23,0-16.46,0-24.69,0
	C458.55,629.11,458.71,637.19,458.87,645.26z"/>
<path class="st1" d="M486.83,570.07c14.47,0,28.95,0,43.42,0c0,15.5,0,30.99,0,46.49c-9.46,0-18.92,0-28.39,0
	c-15.45,15.45-30.89,30.89-46.34,46.34l0,0c-16.97,0-33.94,0-50.91,0c0,47.18,0,94.37,0,141.55c0,0.05,0,0.1,0,0.15"/>
<rect x="495.42" y="578.78" class="st1" width="26.12" height="26.12"/>
<path class="st1" d="M437.38,475.75c-10.16,0-20.32,0-30.49,0c0-5.09,0-10.17,0-15.26c37.25,0,74.51,0,111.76,0
	c0,28.57,0,57.13,0,85.7c-6.31,0-12.62,0-18.93,0c0-15.55,0-31.1,0-46.65c-13.35,0-26.69,0-40.04,0c0-6.98,0-13.96,0-20.94
	c13.86,0,27.71,0,41.57,0"/>
<path class="st1" d="M199.5,450.29"/>
<circle class="st2" cx="435.37" cy="475.83" r="5.04"/>
<circle class="st2" cx="504.76" cy="478.6" r="5.04"/>
<circle class="st5" cx="504.76" cy="478.6" r="3.51"/>
<circle class="st2" cx="469.16" cy="129.19" r="5.04"/>
<path class="st2" d="M501.32,129.19c42.69,0,85.37,0,128.06,0"/>
<path class="st1" d="M600.82,149.69c-27.85,0-55.71,0-83.56,0c-10.52,10.52-21.03,21.03-31.55,31.55c37.7,0,75.4,0,113.1,0
	c0,147.69,0,295.37,0,443.06c-15.08,0-30.15,0-45.23,0c0,65.86,0,131.72,0,197.58c0,4.79,0,9.57,0,14.36"/>
<path class="st1" d="M568.9,308.17c0-36.11,0-72.21,0-108.32c-55.84,0-111.68,0-167.52,0c0-44.66,0-89.33,0-133.99
	c35.11,0,70.21,0,105.32,0c0,11.05,0,22.09,0,33.14c30.28,0,60.56,0,90.85,0"/>
<path class="st1" d="M590.71-28.25c0,33.76,0,67.51,0,101.27c-17.94,0-35.88,0-53.83,0c-13.5-13.5-27-27-40.5-40.5
	c-42.06,0-84.12,0-126.19,0c0,62.82,0,125.63,0,188.45c-16.32,0-32.63,0-48.95,0c0-11.19,0-22.39,0-33.58"/>
<circle class="st2" cx="321.25" cy="187.02" r="5.04"/>
<path class="st2" d="M473.91,233.82c19.92,0,39.84,0,59.77,0"/>
<circle class="st2" cx="533.68" cy="233.82" r="5.04"/>
<g>
	<circle class="st2" cx="478.96" cy="233.82" r="5.04"/>
	<circle class="st5" cx="478.96" cy="233.82" r="3.51"/>
</g>
<g>
	<circle class="st2" cx="597.54" cy="98.5" r="5.04"/>
	<circle class="st5" cx="597.54" cy="98.5" r="3.51"/>
</g>
<path class="st1" d="M164.67,51.52c11.96-11.96,23.92-23.92,35.88-35.88"/>
<path class="st1" d="M199.42,51.52c11.96-11.96,23.92-23.92,35.88-35.88"/>
<path class="st1" d="M215.12,51.52C227.08,39.56,239.04,27.6,251,15.64"/>
<path class="st1" d="M231.06,51.52c11.96-11.96,23.92-23.92,35.88-35.88"/>
<path class="st1" d="M182.96,50.77c11.96-11.96,23.92-23.92,35.88-35.88"/>
<path class="st1" d="M180.91,16.74c-4.59,4.59-9.18,9.18-13.76,13.76"/>
<path class="st1" d="M267.31,32.2c-4.86,4.86-9.72,9.72-14.58,14.58c0,56.41,0,112.82,0,169.23c-8.31,0-16.62,0-24.93,0"/>
<circle class="st2" cx="227.8" cy="216.01" r="5.04"/>
<circle class="st2" cx="406.89" cy="288.66" r="5.04"/>
<path class="st2" d="M368.28,353.77c19.92,0,39.84,0,59.77,0"/>
<circle class="st2" cx="428.05" cy="353.77" r="5.04"/>
<circle class="st2" cx="373.32" cy="353.77" r="5.04"/>
<circle class="st5" cx="373.32" cy="353.77" r="3.51"/>
<path class="st1" d="M441.88,414.09c15.22,0,30.44,0,45.65,0c6.06,6.06,12.12,12.12,18.19,18.19c21.77,0,43.53,0,65.3,0
	c0,50.02,0,100.04,0,150.06c0,0.04,0,0.08,0,0.12"/>
<circle class="st2" cx="571.01" cy="582.45" r="5.04"/>
<g>
	<circle class="st2" cx="441.88" cy="414.09" r="5.04"/>
	<circle class="st5" cx="441.88" cy="414.09" r="3.51"/>
</g>
<path class="st1" d="M514.02,822.59c0-61.02,0-122.04,0-183.06c-11.6,11.6-23.2,23.2-34.8,34.8c0,47.93,0,95.86,0,143.79"/>
<path class="st1" d="M423.33,806.44c0-38.38,0-76.75,0-115.12l0,0c8.58,0,17.17,0,25.75,0c0,38.39,0,76.78,0,115.17"/>
<g>
	<circle class="st2" cx="35" cy="681.93" r="5.04"/>
	<circle class="st5" cx="35" cy="681.93" r="3.51"/>
</g>
<path class="st2" d="M-76.29,129.19c36.9,0,73.8,0,110.7,0"/>
<g>
	<circle class="st2" cx="34.31" cy="130.24" r="5.04"/>
	<circle class="st5" cx="34.31" cy="130.24" r="3.51"/>
</g>
<circle class="st2" cx="598.77" cy="149.69" r="5.04"/>
<path class="st1" d="M521.62-39.49c0,20.15,0,40.3,0,60.46c12.5,12.5,25,25,37.5,37.5c0-42.53,0-85.06,0-127.59"/>
</svg>
